<?xml version="1.0" encoding="UTF-8"?>
<svg version="1.1" xmlns="http://www.w3.org/2000/svg" width="106" height="119">
<path d="M0 0 C34.98 0 69.96 0 106 0 C106 39.27 106 78.54 106 119 C71.02 119 36.04 119 0 119 C0 79.73 0 40.46 0 0 Z " fill="#FEFEFE" transform="translate(0,0)"/>
<path d="M0 0 C8.29135097 4.62283096 11.93798452 10.25363212 14.6328125 19.171875 C14.79136719 19.74035156 14.94992188 20.30882813 15.11328125 20.89453125 C15.77328125 20.23453125 16.43328125 19.57453125 17.11328125 18.89453125 C20.34909586 18.38361315 21.69119164 18.60933557 24.42578125 20.45703125 C26.83453212 23.93633806 26.80818175 25.72512825 26.11328125 29.89453125 C23.3808224 34.75122721 19.76070776 38.79624691 15.11328125 41.89453125 C14.45328125 41.89453125 13.79328125 41.89453125 13.11328125 41.89453125 C12.90703125 42.86390625 12.70078125 43.83328125 12.48828125 44.83203125 C9.71224731 54.24392714 3.50819333 60.18674621 -4.88671875 64.89453125 C-15.22413794 69.92016238 -26.29351722 68.53143423 -36.88671875 64.89453125 C-41.69425822 62.74190164 -46.75499286 60.25171509 -49.88671875 55.89453125 C-50.13671875 53.14453125 -50.13671875 53.14453125 -49.88671875 50.89453125 C-48.64921875 50.60578125 -47.41171875 50.31703125 -46.13671875 50.01953125 C-41.73493999 49.04579494 -41.73493999 49.04579494 -37.88671875 46.89453125 C-36.58751129 43.34864624 -36.58751129 43.34864624 -35.88671875 39.89453125 C-36.46421875 39.66765625 -37.04171875 39.44078125 -37.63671875 39.20703125 C-41.50535815 36.95032493 -44.43538518 33.1275875 -45.88671875 28.89453125 C-46.33907733 25.06138747 -46.35927877 21.94466463 -44.76171875 18.39453125 C-42.88671875 16.89453125 -42.88671875 16.89453125 -39.94921875 16.45703125 C-36.66997732 16.92549431 -35.28806807 17.67790111 -32.88671875 19.89453125 C-32.75136719 19.33765625 -32.61601563 18.78078125 -32.4765625 18.20703125 C-30.328128 10.59102392 -26.24318168 4.98959825 -19.76171875 0.39453125 C-13.72079493 -2.6191431 -6.18859217 -2.36992095 0 0 Z " fill="#F9F9FA" transform="translate(67.88671875,27.10546875)"/>
<path d="M0 0 C8.29135097 4.62283096 11.93798452 10.25363212 14.6328125 19.171875 C14.79136719 19.74035156 14.94992188 20.30882813 15.11328125 20.89453125 C15.77328125 20.23453125 16.43328125 19.57453125 17.11328125 18.89453125 C20.34909586 18.38361315 21.69119164 18.60933557 24.42578125 20.45703125 C26.83453212 23.93633806 26.80818175 25.72512825 26.11328125 29.89453125 C23.3808224 34.75122721 19.76070776 38.79624691 15.11328125 41.89453125 C14.45328125 41.89453125 13.79328125 41.89453125 13.11328125 41.89453125 C12.90703125 42.86390625 12.70078125 43.83328125 12.48828125 44.83203125 C9.71224731 54.24392714 3.50819333 60.18674621 -4.88671875 64.89453125 C-15.22413794 69.92016238 -26.29351722 68.53143423 -36.88671875 64.89453125 C-41.69425822 62.74190164 -46.75499286 60.25171509 -49.88671875 55.89453125 C-50.13671875 53.14453125 -50.13671875 53.14453125 -49.88671875 50.89453125 C-48.64921875 50.60578125 -47.41171875 50.31703125 -46.13671875 50.01953125 C-41.73493999 49.04579494 -41.73493999 49.04579494 -37.88671875 46.89453125 C-36.58751129 43.34864624 -36.58751129 43.34864624 -35.88671875 39.89453125 C-36.46421875 39.66765625 -37.04171875 39.44078125 -37.63671875 39.20703125 C-41.50535815 36.95032493 -44.43538518 33.1275875 -45.88671875 28.89453125 C-46.33907733 25.06138747 -46.35927877 21.94466463 -44.76171875 18.39453125 C-42.88671875 16.89453125 -42.88671875 16.89453125 -39.94921875 16.45703125 C-36.66997732 16.92549431 -35.28806807 17.67790111 -32.88671875 19.89453125 C-32.75136719 19.33765625 -32.61601563 18.78078125 -32.4765625 18.20703125 C-30.328128 10.59102392 -26.24318168 4.98959825 -19.76171875 0.39453125 C-13.72079493 -2.6191431 -6.18859217 -2.36992095 0 0 Z M-25.32421875 10.95703125 C-27.96024036 15.91275188 -28.37746201 20.32516584 -27.88671875 25.89453125 C-27.02405907 28.30010978 -27.02405907 28.30010978 -25.88671875 29.89453125 C-29.85918133 27.72773348 -32.9156233 25.13208342 -36.140625 22.00390625 C-37.86063021 20.64388593 -37.86063021 20.64388593 -40.1015625 21.22265625 C-40.69066406 21.444375 -41.27976562 21.66609375 -41.88671875 21.89453125 C-42.39646632 27.24688073 -41.19567192 29.71480093 -37.88671875 33.89453125 C-36.78847689 34.90103453 -35.68419618 35.90098501 -34.57421875 36.89453125 C-32.20724154 39.18960029 -31.90335849 39.48685765 -31.76171875 42.95703125 C-33.32802545 47.04683208 -34.84828941 49.92013864 -38.9296875 51.87109375 C-40.8908294 52.61389794 -42.88746313 53.26143364 -44.88671875 53.89453125 C-44.17765 57.09101088 -44.17765 57.09101088 -41.33984375 58.46484375 C-40.2828125 58.97789063 -39.22578125 59.4909375 -38.13671875 60.01953125 C-37.09 60.53773437 -36.04328125 61.0559375 -34.96484375 61.58984375 C-26.47089469 65.19007089 -16.8921772 64.88946631 -8.234375 61.92578125 C0.17821595 58.2304002 5.38504767 51.84922507 9.16674805 43.59521484 C10.82423098 38.86602315 10.52377362 34.04843454 10.55078125 29.08203125 C10.58365234 28.02693359 10.61652344 26.97183594 10.65039062 25.88476562 C10.70507431 17.90591905 9.00813654 13.14270233 3.63842773 7.28588867 C-0.92205114 3.12546461 -6.43118961 2.28091384 -12.390625 2.48046875 C-18.12025012 3.43092299 -21.78682776 6.51261694 -25.32421875 10.95703125 Z " fill="#313243" transform="translate(67.88671875,27.10546875)"/>
<path d="M0 0 C8.30515633 4.59197168 11.94882987 10.25585652 14.640625 19.1640625 C14.79917969 19.73253906 14.95773438 20.30101563 15.12109375 20.88671875 C15.78109375 20.22671875 16.44109375 19.56671875 17.12109375 18.88671875 C20.35690836 18.37580065 21.69900414 18.60152307 24.43359375 20.44921875 C26.84234462 23.92852556 26.81599425 25.71731575 26.12109375 29.88671875 C23.3886349 34.74341471 19.76852026 38.78843441 15.12109375 41.88671875 C14.46109375 41.88671875 13.80109375 41.88671875 13.12109375 41.88671875 C12.83234375 43.00046875 12.54359375 44.11421875 12.24609375 45.26171875 C11.12109375 48.88671875 11.12109375 48.88671875 9.12109375 50.88671875 C8.13109375 50.39171875 8.13109375 50.39171875 7.12109375 49.88671875 C7.60687918 46.7638124 8.11969495 43.89091516 9.12109375 40.88671875 C9.4315805 36.99620187 9.44503397 33.10064984 9.49609375 29.19921875 C9.53347656 28.13509766 9.57085937 27.07097656 9.609375 25.97460938 C9.68675307 19.01488173 8.83869064 14.18113246 4.12109375 8.88671875 C-1.99117248 4.11915109 -7.28474748 3.03396041 -14.87890625 3.88671875 C-18.88573116 5.38834887 -21.94618182 7.79964041 -24.87890625 10.88671875 C-25.53890625 10.88671875 -26.19890625 10.88671875 -26.87890625 10.88671875 C-28.19890625 14.18671875 -29.51890625 17.48671875 -30.87890625 20.88671875 C-31.20890625 20.88671875 -31.53890625 20.88671875 -31.87890625 20.88671875 C-31.59079073 12.81948421 -28.73184784 8.53034561 -22.9375 3.05078125 C-16.07886172 -2.33002889 -8.13118084 -3.1443508 0 0 Z " fill="#373849" transform="translate(67.87890625,27.11328125)"/>
<path d="M0 0 C0.33 0 0.66 0 1 0 C2.31704864 27.84038212 2.31704864 27.84038212 -6.93359375 38.15625 C-14.45979401 45.31567636 -22.90325339 47.33811589 -33.09375 47.21484375 C-40.68293604 46.65381521 -48.14079945 43.95904404 -54 39 C-54 38.34 -54 37.68 -54 37 C-53.01 37.28875 -52.02 37.5775 -51 37.875 C-48.25866591 38.30666201 -47.20848528 38.1178395 -44.75390625 36.73046875 C-42.76699421 35.21814889 -40.85929257 33.66611932 -39 32 C-38.89042969 32.62648437 -38.78085937 33.25296875 -38.66796875 33.8984375 C-38.50941406 34.71570313 -38.35085937 35.53296875 -38.1875 36.375 C-38.03667969 37.18710938 -37.88585937 37.99921875 -37.73046875 38.8359375 C-37.12455058 41.35820641 -37.12455058 41.35820641 -34 43 C-25.37180388 43.95868846 -18.01562348 41.35273756 -10.8203125 36.54296875 C-6.05545394 32.66768679 -2.19948062 28.15355265 -1 22 C-0.8562677 20.2683761 -0.75425068 18.53301667 -0.68359375 16.796875 C-0.62075195 15.32734375 -0.62075195 15.32734375 -0.55664062 13.828125 C-0.51732422 12.81234375 -0.47800781 11.7965625 -0.4375 10.75 C-0.37272461 9.203125 -0.37272461 9.203125 -0.30664062 7.625 C-0.20074318 5.0834613 -0.09866557 2.54182804 0 0 Z " fill="#CDCED2" transform="translate(77,44)"/>
<path d="M0 0 C1 3 1 3 0.0625 5.6875 C-1.55709563 10.73682756 -1.70241135 15.89276596 0 21 C-3.67248429 20.42999135 -5.25001069 18.99489742 -7.8125 16.375 C-10.5542258 13.75267796 -10.5542258 13.75267796 -14.07421875 12.76171875 C-16.20750323 13.04644154 -16.20750323 13.04644154 -19 14 C-18.125 9.125 -18.125 9.125 -17 8 C-11.72670463 7.38682612 -9.15712774 8.83266458 -5 12 C-4.896875 11.113125 -4.79375 10.22625 -4.6875 9.3125 C-3.92569823 5.64200057 -2.68717596 2.68717596 0 0 Z " fill="#2E2F40" transform="translate(42,36)"/>
<path d="M0 0 C1.921875 0.7421875 1.921875 0.7421875 4 2 C4.765625 3.8828125 4.765625 3.8828125 5.25 6.125 C6.42449259 10.28243685 8.05074595 12.3048388 11.25 15.1875 C13.390625 17.13671875 13.390625 17.13671875 15 19 C15 22.5 15 22.5 14 25 C13.34 24.34 12.68 23.68 12 23 C11.67 23.66 11.34 24.32 11 25 C10.34 24.67 9.68 24.34 9 24 C9.33 22.35 9.66 20.7 10 19 C9.4225 18.773125 8.845 18.54625 8.25 18.3125 C4.3813606 16.05579368 1.45133357 12.23305625 0 8 C-0.15554553 5.30906225 -0.09000683 2.70020493 0 0 Z " fill="#383849" transform="translate(22,48)"/>
<path d="M0 0 C0.86625 0.37125 0.86625 0.37125 1.75 0.75 C1.35791281 6.10852494 -0.5857387 9.89168125 -4.25 13.75 C-4.91 13.75 -5.57 13.75 -6.25 13.75 C-6.87145499 4.70437731 -6.87145499 4.70437731 -4.5 1.0625 C-2.25 -0.25 -2.25 -0.25 0 0 Z " fill="#F0F1F2" transform="translate(88.25,50.25)"/>
<path d="M0 0 C2.97 0 5.94 0 9 0 C8.67 2.31 8.34 4.62 8 7 C6.02 7.33 4.04 7.66 2 8 C-0.1519437 4.77208445 -0.20086443 3.71599191 0 0 Z " fill="#2B2C3E" transform="translate(58,53)"/>
<path d="M0 0 C1.32 0 2.64 0 4 0 C5.25 6.625 5.25 6.625 3 10 C-0.875 9.125 -0.875 9.125 -2 8 C-2.1875 5.0625 -2.1875 5.0625 -2 2 C-1.34 1.34 -0.68 0.68 0 0 Z " fill="#2E2E40" transform="translate(52,42)"/>
<path d="M0 0 C3.53571429 0.53571429 3.53571429 0.53571429 5 2 C5.04092937 4.33297433 5.04241723 6.66705225 5 9 C3.1875 9.6875 3.1875 9.6875 1 10 C-0.75 8.875 -0.75 8.875 -2 7 C-2.3125 4.4375 -2.3125 4.4375 -2 2 C-1.34 1.34 -0.68 0.68 0 0 Z " fill="#333345" transform="translate(68,41)"/>
<path d="M0 0 C0.66 0.33 1.32 0.66 2 1 C0.34197245 3.21070341 -0.69814192 4.55817681 -3 6 C-6.37425965 6.43788102 -9.61677147 6.29562191 -13 6 C-13.33 5.34 -13.66 4.68 -14 4 C-13.15695313 3.79503906 -12.31390625 3.59007813 -11.4453125 3.37890625 C-10.34960938 3.10949219 -9.25390625 2.84007813 -8.125 2.5625 C-7.03445312 2.29566406 -5.94390625 2.02882813 -4.8203125 1.75390625 C-2.07515279 1.1213522 -2.07515279 1.1213522 0 0 Z " fill="#D1D2D6" transform="translate(60,84)"/>
<path d="M0 0 C0.33 0.66 0.66 1.32 1 2 C-5.26637555 8.44541485 -5.26637555 8.44541485 -9 11 C-9.99 10.67 -10.98 10.34 -12 10 C-12 9.34 -12 8.68 -12 8 C-10.02678947 6.6273318 -8.02456848 5.29572383 -6 4 C-5.34 3.34 -4.68 2.68 -4 2 C-2.68252676 1.30251417 -1.35085807 0.63040043 0 0 Z " fill="#EAEBEC" transform="translate(39,72)"/>
<path d="M0 0 C3.71087906 0.55827384 5.29951225 1.96440282 7.75 4.75 C8.67039062 5.76320313 8.67039062 5.76320313 9.609375 6.796875 C11.25932375 9.41083875 11.27588936 10.96521706 11 14 C10.34 14 9.68 14 9 14 C8.814375 13.319375 8.62875 12.63875 8.4375 11.9375 C6.68598612 8.35831945 4.36815934 6.22661196 1.4609375 3.55078125 C0 2 0 2 0 0 Z " fill="#CBCCD1" transform="translate(28,57)"/>
<path d="M0 0 C0.99 0.33 1.98 0.66 3 1 C1.7934375 1.804375 1.7934375 1.804375 0.5625 2.625 C-2.46508424 5.43105369 -2.72510809 6.96825194 -3 11 C-2.01 11.33 -1.02 11.66 0 12 C-1.98 12.99 -1.98 12.99 -4 14 C-4.63019694 4.82713348 -4.63019694 4.82713348 -2 1.375 C-1.34 0.92125 -0.68 0.4675 0 0 Z " fill="#BABAC0" transform="translate(86,50)"/>
<path d="M0 0 C1.27162597 3.8148779 0.64661571 5.3931275 -1 9 C-3.125 9.875 -3.125 9.875 -5 10 C-3.14285714 2.42857143 -3.14285714 2.42857143 0 0 Z " fill="#262639" transform="translate(42,36)"/>
<path d="M0 0 C0.66 0.33 1.32 0.66 2 1 C-0.64 3.64 -3.28 6.28 -6 9 C-6 6 -6 6 -3.5625 3.375 C-2.716875 2.59125 -1.87125 1.8075 -1 1 C-0.67 0.67 -0.34 0.34 0 0 Z " fill="#DADADD" transform="translate(49,32)"/>
<path d="M0 0 C-0.33 0.66 -0.66 1.32 -1 2 C-3.31 2 -5.62 2 -8 2 C-8.33 1.34 -8.66 0.68 -9 0 C-3.375 -1.125 -3.375 -1.125 0 0 Z " fill="#D8D9DD" transform="translate(55,88)"/>
</svg>
