<?xml version="1.0" encoding="UTF-8"?>
<svg version="1.1" xmlns="http://www.w3.org/2000/svg" width="744" height="140">
<path d="M0 0 C245.52 0 491.04 0 744 0 C744 46.2 744 92.4 744 140 C498.48 140 252.96 140 0 140 C0 93.8 0 47.6 0 0 Z " fill="#FDFDFD" transform="translate(0,0)"/>
<path d="M0 0 C8.29135097 4.62283096 11.93798452 10.25363212 14.6328125 19.171875 C14.79136719 19.74035156 14.94992188 20.30882813 15.11328125 20.89453125 C15.77328125 20.23453125 16.43328125 19.57453125 17.11328125 18.89453125 C20.34909586 18.38361315 21.69119164 18.60933557 24.42578125 20.45703125 C26.83453212 23.93633806 26.80818175 25.72512825 26.11328125 29.89453125 C23.3808224 34.75122721 19.76070776 38.79624691 15.11328125 41.89453125 C14.45328125 41.89453125 13.79328125 41.89453125 13.11328125 41.89453125 C12.90703125 42.86390625 12.70078125 43.83328125 12.48828125 44.83203125 C9.71224731 54.24392714 3.50819333 60.18674621 -4.88671875 64.89453125 C-15.22413794 69.92016238 -26.29351722 68.53143423 -36.88671875 64.89453125 C-41.69425822 62.74190164 -46.75499286 60.25171509 -49.88671875 55.89453125 C-50.13671875 53.14453125 -50.13671875 53.14453125 -49.88671875 50.89453125 C-48.64921875 50.60578125 -47.41171875 50.31703125 -46.13671875 50.01953125 C-41.73493999 49.04579494 -41.73493999 49.04579494 -37.88671875 46.89453125 C-36.58751129 43.34864624 -36.58751129 43.34864624 -35.88671875 39.89453125 C-36.46421875 39.66765625 -37.04171875 39.44078125 -37.63671875 39.20703125 C-41.50535815 36.95032493 -44.43538518 33.1275875 -45.88671875 28.89453125 C-46.33907733 25.06138747 -46.35927877 21.94466463 -44.76171875 18.39453125 C-42.88671875 16.89453125 -42.88671875 16.89453125 -39.94921875 16.45703125 C-36.66997732 16.92549431 -35.28806807 17.67790111 -32.88671875 19.89453125 C-32.75136719 19.33765625 -32.61601563 18.78078125 -32.4765625 18.20703125 C-30.328128 10.59102392 -26.24318168 4.98959825 -19.76171875 0.39453125 C-13.72079493 -2.6191431 -6.18859217 -2.36992095 0 0 Z " fill="#F9F9FA" transform="translate(84.88671875,40.10546875)"/>
<path d="M0 0 C8.600625 -0.12375 8.600625 -0.12375 17.375 -0.25 C19.16341309 -0.28641602 20.95182617 -0.32283203 22.79443359 -0.36035156 C32.35456702 -0.475266 40.52836389 -0.23495738 48.40234375 5.859375 C48.90894531 6.48328125 49.41554688 7.1071875 49.9375 7.75 C50.46214844 8.36359375 50.98679687 8.9771875 51.52734375 9.609375 C55.77123615 16.49866452 56.58234305 22.81346618 56.5625 30.75 C56.56080811 31.71993896 56.55911621 32.68987793 56.55737305 33.68920898 C56.31620766 43.32372572 53.70773918 49.55071299 47.5 57 C40.42752685 62.65797852 35.16530937 65.32659552 26.07421875 65.1953125 C25.41087524 65.19329834 24.74753174 65.19128418 24.06408691 65.18920898 C21.60515346 65.17880824 19.1463192 65.15088592 16.6875 65.125 C8.4271875 65.063125 8.4271875 65.063125 0 65 C0 43.55 0 22.1 0 0 Z " fill="#2B2B3D" transform="translate(254,41)"/>
<path d="M0 0 C8.6625 -0.0928125 8.6625 -0.0928125 17.5 -0.1875 C20.20993164 -0.22846802 20.20993164 -0.22846802 22.97460938 -0.27026367 C24.43098282 -0.27903796 25.88736371 -0.28667966 27.34375 -0.29296875 C28.08012695 -0.30831665 28.81650391 -0.32366455 29.57519531 -0.33947754 C37.36323751 -0.34334577 43.69575182 2.01046515 49.4609375 7.328125 C57.24162077 15.78023779 56.60059153 27.01458512 56.3984375 37.8359375 C55.94011539 46.86910868 51.95639691 52.40171134 45.5625 58.5 C39.50964163 63.76141649 33.78021962 65.466629 25.87890625 65.29296875 C25.2175769 65.28994751 24.55624756 65.28692627 23.87487793 65.28381348 C21.43725668 65.26828188 18.99986034 65.22639954 16.5625 65.1875 C11.096875 65.125625 5.63125 65.06375 0 65 C0 43.55 0 22.1 0 0 Z " fill="#2A2A3C" transform="translate(372,41)"/>
<path d="M0 0 C6.15590254 4.01678583 9.70803409 9.10093465 11.58203125 16.20703125 C13.47691695 28.86911796 12.39008709 40.21113581 6.0625 51.4375 C1.6090106 56.97062319 -3.93507371 60.93215689 -11 62 C-13.93839637 62.21249792 -16.86720544 62.27601823 -19.8125 62.3125 C-20.58142578 62.34150391 -21.35035156 62.37050781 -22.14257812 62.40039062 C-28.96121866 62.47519428 -33.9117344 60.54393101 -39.171875 56.2109375 C-47.88077113 46.07930092 -49.06747603 36.23736779 -48.23193359 23.24560547 C-47.42053109 15.38952103 -44.80579245 8.40073716 -39 3 C-36.75817375 1.4355601 -34.45036397 0.20378143 -32 -1 C-31.01 -1.5775 -30.02 -2.155 -29 -2.75 C-19.92247251 -6.45887692 -8.29489444 -4.85628365 0 0 Z " fill="#29293C" transform="translate(233,44)"/>
<path d="M0 0 C5.424375 -0.103125 10.84875 -0.20625 16.4375 -0.3125 C18.97715454 -0.38078003 18.97715454 -0.38078003 21.56811523 -0.45043945 C29.63016867 -0.57663564 36.53166428 -0.43300759 43 5 C46.36573257 8.52991464 47.26472937 11.24468153 47.5 16 C47.27069692 21.64764985 45.00512553 24.68639362 41.375 28.875 C40 30 40 30 38 30 C38 30.66 38 31.32 38 32 C38.721875 32.0825 39.44375 32.165 40.1875 32.25 C43.58712309 33.15656616 45.42430315 34.63894455 48 37 C50.33013801 41.66027603 49.38750606 47.92771923 49 53 C46.84717095 58.57778436 42.96429857 60.45972862 37.828125 63.01953125 C26.50172013 66.94622686 10.33664265 65 0 65 C0 43.55 0 22.1 0 0 Z " fill="#7D7E88" transform="translate(551,41)"/>
<path d="M0 0 C5.94 0 11.88 0 18 0 C21.89181023 4.07936735 23.44435929 6.22001995 25.625 11.125 C26.14449219 12.15238281 26.66398438 13.17976563 27.19921875 14.23828125 C28.83532403 17.47431258 30.4169809 20.7376711 32 24 C34.64 28.62 37.28 33.24 40 38 C40.33 25.46 40.66 12.92 41 0 C45.95 0 50.9 0 56 0 C56 21.45 56 42.9 56 65 C49.73 65 43.46 65 37 65 C35.63875 62.1846875 35.63875 62.1846875 34.25 59.3125 C30.53075408 51.75124235 26.33506662 44.47370187 22.08886719 37.19848633 C21.5890332 36.33763428 21.08919922 35.47678223 20.57421875 34.58984375 C20.12651123 33.82534912 19.67880371 33.06085449 19.2175293 32.27319336 C17.94893046 29.9046504 16.95191446 27.51065016 16 25 C15.34 25 14.68 25 14 25 C14 38.2 14 51.4 14 65 C9.38 65 4.76 65 0 65 C0 43.55 0 22.1 0 0 Z " fill="#80818A" transform="translate(642,41)"/>
<path d="M0 0 C6.93 0 13.86 0 21 0 C21.56847656 1.97097656 22.13695312 3.94195312 22.72265625 5.97265625 C23.29706695 7.96062011 23.87206992 9.94841153 24.44723511 11.93615723 C24.8570635 13.35251569 25.26667082 14.76893814 25.67605591 16.1854248 C28.60166754 26.30115777 31.59036256 36.39313025 34.79125977 46.42602539 C36.70764653 52.56537633 37.94403487 58.65400667 39 65 C33.39 65 27.78 65 22 65 C21.34 61.04 20.68 57.08 20 53 C9.11 52.505 9.11 52.505 -2 52 C-2.66 56.29 -3.32 60.58 -4 65 C-9.28 65 -14.56 65 -20 65 C-18.87592659 57.13148615 -18.87592659 57.13148615 -17.51171875 53.3984375 C-17.21982666 52.58608643 -16.92793457 51.77373535 -16.62719727 50.93676758 C-16.31709717 50.09138428 -16.00699707 49.24600098 -15.6875 48.375 C-15.04249029 46.57485574 -14.39925504 44.77407467 -13.7578125 42.97265625 C-13.45004883 42.10914551 -13.14228516 41.24563477 -12.82519531 40.35595703 C-11.49369384 36.55448093 -10.33107873 32.70934 -9.17578125 28.8515625 C-7.4425429 23.10683482 -5.58254438 17.40110163 -3.75 11.6875 C-3.20098022 9.97494019 -3.20098022 9.97494019 -2.64086914 8.2277832 C-1.76117102 5.48499899 -0.88066928 2.74247254 0 0 Z " fill="#7F808A" transform="translate(503,41)"/>
<path d="M0 0 C14.19 0 28.38 0 43 0 C43 4.29 43 8.58 43 13 C33.76 13 24.52 13 15 13 C15 17.29 15 21.58 15 26 C22.26 26 29.52 26 37 26 C37 33 37 33 36 38 C29.07 38 22.14 38 15 38 C15 42.62 15 47.24 15 52 C24.24 52 33.48 52 43 52 C43 56.29 43 60.58 43 65 C28.48 65 13.96 65 -1 65 C-0.67 43.55 -0.34 22.1 0 0 Z " fill="#2A2A3C" transform="translate(320,41)"/>
<path d="M0 0 C0.1799928 5.21979128 -0.02905192 9.07262981 -2 14 C-4.50792853 13.58201191 -6.62030814 13.20775592 -8.86328125 11.98046875 C-12.73428639 10.204194 -16.83168978 10.56016207 -21 11 C-24.73389649 12.58889212 -26.94280942 14.50277602 -29 18 C-31.32175601 27.48185671 -30.7979295 37.36668859 -26 46 C-23.74185159 48.26308965 -22.48312986 48.93497673 -19.30078125 49.36328125 C-12.90697009 49.25462825 -7.18440469 48.64917458 -1 47 C-1 51.62 -1 56.24 -1 61 C-10.60155336 64.20051779 -23.49036298 64.73592883 -33 61 C-40.21359143 57.17209804 -43.87940016 51.41817331 -47 44 C-49.55610274 34.6951626 -49.3027779 22.36994668 -45.44921875 13.5 C-41.31992252 6.37668574 -35.98960129 0.2048671 -28.015625 -2.453125 C-18.74244045 -4.13479059 -8.54798978 -4.27399489 0 0 Z " fill="#2B2B3D" transform="translate(181,43)"/>
<path d="M0 0 C-0.30852185 1.958964 -0.6219418 3.91715713 -0.9375 5.875 C-1.11152344 6.96554688 -1.28554688 8.05609375 -1.46484375 9.1796875 C-2 12 -2 12 -3 14 C-3.60585938 13.7834375 -4.21171875 13.566875 -4.8359375 13.34375 C-10.82381895 11.35393093 -16.68456151 9.77729521 -23 11 C-26.34257609 13.57656907 -29.67722813 16.70533609 -30.29052734 21.06542969 C-30.33989983 23.62748991 -30.37131814 26.18742763 -30.375 28.75 C-30.39949219 29.63171875 -30.42398437 30.5134375 -30.44921875 31.421875 C-30.47652656 37.53882466 -29.36918741 40.91292652 -26 46 C-26 46.66 -26 47.32 -26 48 C-17.79375937 50.11773952 -10.12857302 48.8317911 -2 47 C-2 51.62 -2 56.24 -2 61 C-7.28981524 62.75168652 -11.88211358 63.31000417 -17.4375 63.25 C-18.50581055 63.26160156 -18.50581055 63.26160156 -19.59570312 63.2734375 C-26.76563961 63.24738868 -33.5250589 62.1501841 -39.328125 57.69140625 C-47.02974203 49.89981706 -48.20891659 41.77477417 -48.3125 31.375 C-48.34150391 30.42753906 -48.37050781 29.48007813 -48.40039062 28.50390625 C-48.48489787 19.00009135 -45.82229406 10.72434528 -39.15625 3.76171875 C-28.0004404 -5.35290105 -12.89763777 -5.09836034 0 0 Z " fill="#7E7F89" transform="translate(482,43)"/>
<path d="M0 0 C8.29135097 4.62283096 11.93798452 10.25363212 14.6328125 19.171875 C14.79136719 19.74035156 14.94992188 20.30882813 15.11328125 20.89453125 C15.77328125 20.23453125 16.43328125 19.57453125 17.11328125 18.89453125 C20.34909586 18.38361315 21.69119164 18.60933557 24.42578125 20.45703125 C26.83453212 23.93633806 26.80818175 25.72512825 26.11328125 29.89453125 C23.3808224 34.75122721 19.76070776 38.79624691 15.11328125 41.89453125 C14.45328125 41.89453125 13.79328125 41.89453125 13.11328125 41.89453125 C12.90703125 42.86390625 12.70078125 43.83328125 12.48828125 44.83203125 C9.71224731 54.24392714 3.50819333 60.18674621 -4.88671875 64.89453125 C-15.22413794 69.92016238 -26.29351722 68.53143423 -36.88671875 64.89453125 C-41.69425822 62.74190164 -46.75499286 60.25171509 -49.88671875 55.89453125 C-50.13671875 53.14453125 -50.13671875 53.14453125 -49.88671875 50.89453125 C-48.64921875 50.60578125 -47.41171875 50.31703125 -46.13671875 50.01953125 C-41.73493999 49.04579494 -41.73493999 49.04579494 -37.88671875 46.89453125 C-36.58751129 43.34864624 -36.58751129 43.34864624 -35.88671875 39.89453125 C-36.46421875 39.66765625 -37.04171875 39.44078125 -37.63671875 39.20703125 C-41.50535815 36.95032493 -44.43538518 33.1275875 -45.88671875 28.89453125 C-46.33907733 25.06138747 -46.35927877 21.94466463 -44.76171875 18.39453125 C-42.88671875 16.89453125 -42.88671875 16.89453125 -39.94921875 16.45703125 C-36.66997732 16.92549431 -35.28806807 17.67790111 -32.88671875 19.89453125 C-32.75136719 19.33765625 -32.61601563 18.78078125 -32.4765625 18.20703125 C-30.328128 10.59102392 -26.24318168 4.98959825 -19.76171875 0.39453125 C-13.72079493 -2.6191431 -6.18859217 -2.36992095 0 0 Z M-25.32421875 10.95703125 C-27.96024036 15.91275188 -28.37746201 20.32516584 -27.88671875 25.89453125 C-27.02405907 28.30010978 -27.02405907 28.30010978 -25.88671875 29.89453125 C-29.85918133 27.72773348 -32.9156233 25.13208342 -36.140625 22.00390625 C-37.86063021 20.64388593 -37.86063021 20.64388593 -40.1015625 21.22265625 C-40.69066406 21.444375 -41.27976562 21.66609375 -41.88671875 21.89453125 C-42.39646632 27.24688073 -41.19567192 29.71480093 -37.88671875 33.89453125 C-36.78847689 34.90103453 -35.68419618 35.90098501 -34.57421875 36.89453125 C-32.20724154 39.18960029 -31.90335849 39.48685765 -31.76171875 42.95703125 C-33.32802545 47.04683208 -34.84828941 49.92013864 -38.9296875 51.87109375 C-40.8908294 52.61389794 -42.88746313 53.26143364 -44.88671875 53.89453125 C-44.17765 57.09101088 -44.17765 57.09101088 -41.33984375 58.46484375 C-40.2828125 58.97789063 -39.22578125 59.4909375 -38.13671875 60.01953125 C-37.09 60.53773437 -36.04328125 61.0559375 -34.96484375 61.58984375 C-26.47089469 65.19007089 -16.8921772 64.88946631 -8.234375 61.92578125 C0.17821595 58.2304002 5.38504767 51.84922507 9.16674805 43.59521484 C10.82423098 38.86602315 10.52377362 34.04843454 10.55078125 29.08203125 C10.58365234 28.02693359 10.61652344 26.97183594 10.65039062 25.88476562 C10.70507431 17.90591905 9.00813654 13.14270233 3.63842773 7.28588867 C-0.92205114 3.12546461 -6.43118961 2.28091384 -12.390625 2.48046875 C-18.12025012 3.43092299 -21.78682776 6.51261694 -25.32421875 10.95703125 Z " fill="#313243" transform="translate(84.88671875,40.10546875)"/>
<path d="M0 0 C5.28 0 10.56 0 16 0 C16 21.45 16 42.9 16 65 C10.72 65 5.44 65 0 65 C0 43.55 0 22.1 0 0 Z " fill="#7D7E88" transform="translate(611,41)"/>
<path d="M0 0 C4.18134123 1.5486449 6.75972236 3.10899147 9 7 C10.38483406 11.55369565 10.22261563 16.09211917 10.25 20.8125 C10.270625 21.68970703 10.29125 22.56691406 10.3125 23.47070312 C10.35306808 30.25064432 9.46588163 35.17148872 4.875 40.4375 C0.82679364 42.63761215 -2.49157312 42.75538017 -7 42 C-11.10509429 40.25153391 -13.17737431 38.36793914 -14.875 34.3125 C-16.17182731 29.70070583 -16.27655283 25.1338924 -16.3125 20.375 C-16.31813965 19.65868408 -16.3237793 18.94236816 -16.32958984 18.2043457 C-16.24854578 12.24486009 -15.43513024 7.04397337 -11.9375 2.0625 C-7.89375196 -0.77672734 -4.7960135 -0.77818914 0 0 Z " fill="#F9F9F9" transform="translate(218,53)"/>
<path d="M0 0 C16 0 16 0 21 4 C23.86864715 8.65396834 23.33079711 14.14231679 23.3125 19.4375 C23.32861328 20.36626953 23.34472656 21.29503906 23.36132812 22.25195312 C23.36576036 28.47924006 22.59287642 32.86694099 18.5 37.8125 C13.20956136 42.00076392 6.604531 40 0 40 C0 26.8 0 13.6 0 0 Z " fill="#FCFCFC" transform="translate(270,54)"/>
<path d="M0 0 C16 0 16 0 21 4 C23.42441106 8.98798771 23.33374249 14.00367076 23.3125 19.4375 C23.32861328 20.25798828 23.34472656 21.07847656 23.36132812 21.92382812 C23.3665884 28.51495079 22.37598662 33.49558167 17.6875 38.4375 C14 40 14 40 0 40 C0 26.8 0 13.6 0 0 Z " fill="#FCFCFC" transform="translate(388,54)"/>
<path d="M0 0 C8.30515633 4.59197168 11.94882987 10.25585652 14.640625 19.1640625 C14.79917969 19.73253906 14.95773438 20.30101563 15.12109375 20.88671875 C15.78109375 20.22671875 16.44109375 19.56671875 17.12109375 18.88671875 C20.35690836 18.37580065 21.69900414 18.60152307 24.43359375 20.44921875 C26.84234462 23.92852556 26.81599425 25.71731575 26.12109375 29.88671875 C23.3886349 34.74341471 19.76852026 38.78843441 15.12109375 41.88671875 C14.46109375 41.88671875 13.80109375 41.88671875 13.12109375 41.88671875 C12.83234375 43.00046875 12.54359375 44.11421875 12.24609375 45.26171875 C11.12109375 48.88671875 11.12109375 48.88671875 9.12109375 50.88671875 C8.13109375 50.39171875 8.13109375 50.39171875 7.12109375 49.88671875 C7.60687918 46.7638124 8.11969495 43.89091516 9.12109375 40.88671875 C9.4315805 36.99620187 9.44503397 33.10064984 9.49609375 29.19921875 C9.53347656 28.13509766 9.57085937 27.07097656 9.609375 25.97460938 C9.68675307 19.01488173 8.83869064 14.18113246 4.12109375 8.88671875 C-1.99117248 4.11915109 -7.28474748 3.03396041 -14.87890625 3.88671875 C-18.88573116 5.38834887 -21.94618182 7.79964041 -24.87890625 10.88671875 C-25.53890625 10.88671875 -26.19890625 10.88671875 -26.87890625 10.88671875 C-28.19890625 14.18671875 -29.51890625 17.48671875 -30.87890625 20.88671875 C-31.20890625 20.88671875 -31.53890625 20.88671875 -31.87890625 20.88671875 C-31.59079073 12.81948421 -28.73184784 8.53034561 -22.9375 3.05078125 C-16.07886172 -2.33002889 -8.13118084 -3.1443508 0 0 Z " fill="#373849" transform="translate(84.87890625,40.11328125)"/>
<path d="M0 0 C0.33 0 0.66 0 1 0 C2.31704864 27.84038212 2.31704864 27.84038212 -6.93359375 38.15625 C-14.45979401 45.31567636 -22.90325339 47.33811589 -33.09375 47.21484375 C-40.68293604 46.65381521 -48.14079945 43.95904404 -54 39 C-54 38.34 -54 37.68 -54 37 C-53.01 37.28875 -52.02 37.5775 -51 37.875 C-48.25866591 38.30666201 -47.20848528 38.1178395 -44.75390625 36.73046875 C-42.76699421 35.21814889 -40.85929257 33.66611932 -39 32 C-38.89042969 32.62648437 -38.78085937 33.25296875 -38.66796875 33.8984375 C-38.50941406 34.71570313 -38.35085937 35.53296875 -38.1875 36.375 C-38.03667969 37.18710938 -37.88585937 37.99921875 -37.73046875 38.8359375 C-37.12455058 41.35820641 -37.12455058 41.35820641 -34 43 C-25.37180388 43.95868846 -18.01562348 41.35273756 -10.8203125 36.54296875 C-6.05545394 32.66768679 -2.19948062 28.15355265 -1 22 C-0.8562677 20.2683761 -0.75425068 18.53301667 -0.68359375 16.796875 C-0.62075195 15.32734375 -0.62075195 15.32734375 -0.55664062 13.828125 C-0.51732422 12.81234375 -0.47800781 11.7965625 -0.4375 10.75 C-0.37272461 9.203125 -0.37272461 9.203125 -0.30664062 7.625 C-0.20074318 5.0834613 -0.09866557 2.54182804 0 0 Z " fill="#CDCED2" transform="translate(94,57)"/>
<path d="M0 0 C12.24185013 -0.40357748 12.24185013 -0.40357748 17 3 C18 4 18 4 18.3125 7.3125 C18 11 18 11 16.125 13.375 C12.52636523 16.12689718 10.37339252 16.11035524 5.875 16.0625 C2.966875 16.0315625 2.966875 16.0315625 0 16 C0 10.72 0 5.44 0 0 Z " fill="#FBFBFC" transform="translate(566,79)"/>
<path d="M0 0 C8.82352941 -0.35294118 8.82352941 -0.35294118 13.125 0.9375 C15.30782015 3.33860216 15.41654049 4.26891543 15.625 7.4375 C15.4102297 10.73422405 15.12891976 11.82380966 13.125 14.5625 C8.58931752 16.64891394 4.96837129 16.2649798 0 16 C0 10.72 0 5.44 0 0 Z " fill="#F6F6F7" transform="translate(566,52)"/>
<path d="M0 0 C0.66 0 1.32 0 2 0 C2.81806834 2.85267373 3.62957796 5.70695185 4.4375 8.5625 C4.66759766 9.36236328 4.89769531 10.16222656 5.13476562 10.98632812 C5.35712891 11.77587891 5.57949219 12.56542969 5.80859375 13.37890625 C6.01282959 14.0963501 6.21706543 14.81379395 6.42749023 15.55297852 C7.15473598 18.66137261 7.54853571 21.83974998 8 25 C3.05 25 -1.9 25 -7 25 C-6.29854251 20.08979754 -5.77640368 16.89794153 -4.0625 12.5 C-2.49383829 8.36443731 -1.13923668 4.27213755 0 0 Z " fill="#F1F1F2" transform="translate(512,56)"/>
<path d="M0 0 C1 3 1 3 0.0625 5.6875 C-1.55709563 10.73682756 -1.70241135 15.89276596 0 21 C-3.67248429 20.42999135 -5.25001069 18.99489742 -7.8125 16.375 C-10.5542258 13.75267796 -10.5542258 13.75267796 -14.07421875 12.76171875 C-16.20750323 13.04644154 -16.20750323 13.04644154 -19 14 C-18.125 9.125 -18.125 9.125 -17 8 C-11.72670463 7.38682612 -9.15712774 8.83266458 -5 12 C-4.896875 11.113125 -4.79375 10.22625 -4.6875 9.3125 C-3.92569823 5.64200057 -2.68717596 2.68717596 0 0 Z " fill="#2E2F40" transform="translate(59,49)"/>
<path d="M0 0 C1.921875 0.7421875 1.921875 0.7421875 4 2 C4.765625 3.8828125 4.765625 3.8828125 5.25 6.125 C6.42449259 10.28243685 8.05074595 12.3048388 11.25 15.1875 C13.390625 17.13671875 13.390625 17.13671875 15 19 C15 22.5 15 22.5 14 25 C13.34 24.34 12.68 23.68 12 23 C11.67 23.66 11.34 24.32 11 25 C10.34 24.67 9.68 24.34 9 24 C9.33 22.35 9.66 20.7 10 19 C9.4225 18.773125 8.845 18.54625 8.25 18.3125 C4.3813606 16.05579368 1.45133357 12.23305625 0 8 C-0.15554553 5.30906225 -0.09000683 2.70020493 0 0 Z " fill="#383849" transform="translate(39,61)"/>
<path d="M0 0 C0.86625 0.37125 0.86625 0.37125 1.75 0.75 C1.35791281 6.10852494 -0.5857387 9.89168125 -4.25 13.75 C-4.91 13.75 -5.57 13.75 -6.25 13.75 C-6.87145499 4.70437731 -6.87145499 4.70437731 -4.5 1.0625 C-2.25 -0.25 -2.25 -0.25 0 0 Z " fill="#F0F1F2" transform="translate(105.25,63.25)"/>
<path d="M0 0 C2.97 0 5.94 0 9 0 C8.67 2.31 8.34 4.62 8 7 C6.02 7.33 4.04 7.66 2 8 C-0.1519437 4.77208445 -0.20086443 3.71599191 0 0 Z " fill="#2B2C3E" transform="translate(75,66)"/>
<path d="M0 0 C1.32 0 2.64 0 4 0 C5.25 6.625 5.25 6.625 3 10 C-0.875 9.125 -0.875 9.125 -2 8 C-2.1875 5.0625 -2.1875 5.0625 -2 2 C-1.34 1.34 -0.68 0.68 0 0 Z " fill="#2E2E40" transform="translate(69,55)"/>
<path d="M0 0 C3.53571429 0.53571429 3.53571429 0.53571429 5 2 C5.04092937 4.33297433 5.04241723 6.66705225 5 9 C3.1875 9.6875 3.1875 9.6875 1 10 C-0.75 8.875 -0.75 8.875 -2 7 C-2.3125 4.4375 -2.3125 4.4375 -2 2 C-1.34 1.34 -0.68 0.68 0 0 Z " fill="#333345" transform="translate(85,54)"/>
<path d="M0 0 C0.66 0.33 1.32 0.66 2 1 C0.34197245 3.21070341 -0.69814192 4.55817681 -3 6 C-6.37425965 6.43788102 -9.61677147 6.29562191 -13 6 C-13.33 5.34 -13.66 4.68 -14 4 C-13.15695313 3.79503906 -12.31390625 3.59007813 -11.4453125 3.37890625 C-10.34960938 3.10949219 -9.25390625 2.84007813 -8.125 2.5625 C-7.03445312 2.29566406 -5.94390625 2.02882813 -4.8203125 1.75390625 C-2.07515279 1.1213522 -2.07515279 1.1213522 0 0 Z " fill="#D1D2D6" transform="translate(77,97)"/>
<path d="M0 0 C0.33 0.66 0.66 1.32 1 2 C-5.26637555 8.44541485 -5.26637555 8.44541485 -9 11 C-9.99 10.67 -10.98 10.34 -12 10 C-12 9.34 -12 8.68 -12 8 C-10.02678947 6.6273318 -8.02456848 5.29572383 -6 4 C-5.34 3.34 -4.68 2.68 -4 2 C-2.68252676 1.30251417 -1.35085807 0.63040043 0 0 Z " fill="#EAEBEC" transform="translate(56,85)"/>
<path d="M0 0 C3.71087906 0.55827384 5.29951225 1.96440282 7.75 4.75 C8.67039062 5.76320313 8.67039062 5.76320313 9.609375 6.796875 C11.25932375 9.41083875 11.27588936 10.96521706 11 14 C10.34 14 9.68 14 9 14 C8.814375 13.319375 8.62875 12.63875 8.4375 11.9375 C6.68598612 8.35831945 4.36815934 6.22661196 1.4609375 3.55078125 C0 2 0 2 0 0 Z " fill="#CBCCD1" transform="translate(45,70)"/>
<path d="M0 0 C0.99 0.33 1.98 0.66 3 1 C1.7934375 1.804375 1.7934375 1.804375 0.5625 2.625 C-2.46508424 5.43105369 -2.72510809 6.96825194 -3 11 C-2.01 11.33 -1.02 11.66 0 12 C-1.98 12.99 -1.98 12.99 -4 14 C-4.63019694 4.82713348 -4.63019694 4.82713348 -2 1.375 C-1.34 0.92125 -0.68 0.4675 0 0 Z " fill="#BABAC0" transform="translate(103,63)"/>
<path d="M0 0 C1.27162597 3.8148779 0.64661571 5.3931275 -1 9 C-3.125 9.875 -3.125 9.875 -5 10 C-3.14285714 2.42857143 -3.14285714 2.42857143 0 0 Z " fill="#262639" transform="translate(59,49)"/>
<path d="M0 0 C0.66 0.33 1.32 0.66 2 1 C-1.3 4.3 -4.6 7.6 -8 11 C-8 7.0234755 -6.61988497 5.9109833 -4 3 C-1.75 1.1875 -1.75 1.1875 0 0 Z " fill="#4A4A5A" transform="translate(198,44)"/>
<path d="M0 0 C0.66 0.33 1.32 0.66 2 1 C-0.64 3.64 -3.28 6.28 -6 9 C-6 6 -6 6 -3.5625 3.375 C-2.716875 2.59125 -1.87125 1.8075 -1 1 C-0.67 0.67 -0.34 0.34 0 0 Z " fill="#DADADD" transform="translate(66,45)"/>
<path d="M0 0 C-0.33 0.66 -0.66 1.32 -1 2 C-3.31 2 -5.62 2 -8 2 C-8.33 1.34 -8.66 0.68 -9 0 C-3.375 -1.125 -3.375 -1.125 0 0 Z " fill="#D8D9DD" transform="translate(72,101)"/>
</svg>
